PathFileType	3	(X/Y/Z)	C:\Users\koon_\Desktop\
DataRate	CameraRate	NumFrames	NumMarkers	Units	OrigDataRate	OrigDataStartFrame	OrigNumFrames
100.0	100.0	13	27	mm	100.0	1	5024	
Frame#	Time	get:LFHD			get:RFHD			get:LBHD			get:RBHD			get:C7			get:T10			get:CLAV			get:STRN			get:RBAK			get:LSHO			get:LUPA			get:LELB			get:LFRA			get:LWRA			get:LWRB			get:LFIN			get:RSHO			get:RUPA			get:RELB			get:RFRA			get:RWRA			get:RWRB			get:RFIN			get:LASI			get:RASI			get:LPSI			get:RPSI			
		X1	Y1	Z1	X2	Y2	Z2	X3	Y3	Z3	X4	Y4	Z4	X5	Y5	Z5	X6	Y6	Z6	X7	Y7	Z7	X8	Y8	Z8	X9	Y9	Z9	X10	Y10	Z10	X11	Y11	Z11	X12	Y12	Z12	X13	Y13	Z13	X14	Y14	Z14	X15	Y15	Z15	X16	Y16	Z16	X17	Y17	Z17	X18	Y18	Z18	X19	Y19	Z19	X20	Y20	Z20	X21	Y21	Z21	X22	Y22	Z22	X23	Y23	Z23	X24	Y24	Z24	X25	Y25	Z25	X26	Y26	Z26	X27	Y27	Z27	
1	0	48.883633	1534.2345	-34.900597	-94.599792	1531.4758	-67.246063	77.887108	1531.1909	-169.50237	-71.393997	1522.8851	-199.34723	0.48252419	1321.4271	-235.97121	7.5342736	1107.2566	-263.47208	0.60801351	1236.4368	-42.96508	-1.782328	1083.3358	1.428135	-91.580345	1247.6252	-262.32138	157.80711	1325.8525	-160.74362	284.39795	1167.4016	-79.14106	362.36417	1072.8324	-110.38552	385.54941	1099.2144	-25.094902	442.11801	1045.0757	126.26606	498.43945	1032.5865	77.677895	528.45856	1035.214	149.60284	-134.39674	1330.9352	-142.99271	-242.53963	1247.4589	-115.63024	-376.17456	1075.6895	-117.73488	-450.81412	1086.1097	21.029385	-508.60126	1061.5168	97.790321	-536.76532	1032.1805	33.585609	-585.5932	1057.1764	104.22361	134.94212	887.06366	-57.045864	-157.91467	908.21375	-71.719589	51.141102	924.40247	-245.32968	-36.424984	925.19073	-254.18394
2	0.01	48.653538	1534.3923	-34.858902	-94.774933	1531.479	-67.404945	77.838799	1531.2175	-169.42694	-71.396347	1522.8152	-199.45741	0.45148605	1321.301	-235.75226	7.4656701	1107.293	-263.2984	0.55070174	1236.5593	-42.829617	-1.8083016	1083.4783	1.6011422	-91.640022	1247.6755	-262.15662	157.6216	1326.1169	-160.67549	285.58237	1168.8727	-79.441177	364.23074	1075.0865	-110.76682	387.15103	1103.0024	-26.213921	444.55136	1052.2069	125.91496	500.9458	1039.6461	77.53125	531.1701	1044.1482	149.18576	-134.18285	1331.3037	-143.22435	-243.06639	1248.5823	-115.88461	-378.57458	1078.5414	-118.90461	-453.86774	1092.1016	19.131617	-512.53333	1069.7324	95.278793	-540.492	1039.4407	32.088524	-589.59521	1066.5687	101.67635	134.96008	887.04645	-56.959366	-157.95488	908.18591	-71.514458	51.056293	924.45502	-245.14961	-36.502483	925.19781	-253.92508
3	0.02	48.384605	1534.5631	-34.781227	-94.94603	1531.515	-67.586823	77.827011	1531.214	-169.26857	-71.33548	1522.701	-199.59348	0.44600111	1321.2783	-235.71301	7.3520045	1107.2311	-263.00269	-0.19749412	1236.516	-42.498516	-1.8646282	1083.5966	1.758881	-91.677483	1247.6294	-261.84067	157.42738	1326.3263	-160.6312	286.55826	1170.2662	-79.783279	365.87811	1077.2451	-111.17231	388.62805	1106.6146	-27.450684	446.36444	1058.7858	125.60074	503.13724	1046.238	77.224724	533.49481	1052.5303	148.58293	-134.01239	1331.5803	-143.23354	-243.53616	1249.5812	-116.22056	-380.10876	1080.7717	-119.55923	-456.58691	1097.7723	16.949017	-516.08795	1077.7377	92.912849	-543.32874	1045.9592	30.991394	-593.12592	1075.4176	98.978119	134.91074	887.07043	-56.790916	-157.94618	908.14703	-71.261353	50.951416	924.4975	-244.92102	-36.59441	925.28638	-253.82817
4	0.03	48.061314	1534.6959	-34.690273	-95.187378	1531.5679	-67.853577	77.918724	1531.2056	-169.07484	-71.192993	1522.6005	-199.80916	0.41996887	1321.1829	-235.56252	7.2837052	1107.2644	-262.80917	-0.31253368	1236.6265	-42.303738	-1.9389679	1083.7358	1.9349428	-91.653282	1247.5817	-261.63617	157.23685	1326.569	-160.55724	287.44064	1171.4822	-80.084404	367.3519	1079.1957	-111.76826	389.87772	1109.8593	-28.679033	448.1561	1065.0504	125.04546	504.97894	1052.3267	76.767563	535.46405	1060.3617	147.82088	-133.8905	1331.8076	-143.08961	-243.92888	1250.3654	-116.51342	-381.97675	1083.0419	-120.89236	-458.97562	1103.0175	14.651904	-519.03015	1085.0754	91.077217	-546.33215	1052.35	29.378851	-596.11969	1083.6432	96.293182	134.8992	887.03473	-56.63438	-157.99544	908.12518	-71.023399	50.889835	924.51416	-244.75761	-36.669434	925.29132	-253.5528
5	0.04	47.755005	1534.8014	-34.521687	-95.396301	1531.6471	-68.206932	78.040298	1531.1407	-168.74652	-70.937103	1522.5078	-200.11713	0.42045414	1321.1097	-235.47488	7.2050471	1107.1697	-262.42786	-0.35423982	1236.71	-42.140709	-2.001518	1083.8256	2.1923485	-91.64994	1247.5087	-261.33469	157.02518	1326.7988	-160.47855	288.23849	1172.4235	-80.362892	368.59448	1080.9043	-112.46058	390.89639	1112.7139	-29.923347	449.68774	1070.8398	124.16049	506.48462	1057.8248	76.141457	537.09796	1067.5476	146.92783	-133.76376	1332.0365	-143.17906	-244.36957	1250.9996	-116.86291	-383.68735	1085.1217	-122.3168	-461.33853	1107.9841	11.96162	-521.65765	1091.9739	88.410118	-548.92218	1058.2826	27.693901	-598.79297	1091.3687	93.79496	134.84471	887.03186	-56.436409	-158.01132	908.07385	-70.739845	50.81979	924.52905	-244.47202	-36.747787	925.27979	-253.2894
6	0.05	47.379173	1534.9213	-34.284508	-95.486557	1531.3669	-69.112465	78.228905	1531.0502	-168.47697	-70.634064	1522.4133	-200.33821	0.3958008	1321.0439	-235.33675	7.1385403	1107.1244	-262.16107	-0.46409026	1236.8069	-42.019257	-2.0745845	1083.9258	2.4074385	-91.611061	1247.4504	-261.07431	156.83649	1327.0001	-160.3959	288.97775	1173.1521	-80.671753	369.64154	1082.4324	-113.22983	391.73407	1115.2928	-31.281202	450.87903	1076.0505	123.25226	507.65485	1062.8047	75.404411	538.37891	1074.0736	145.87059	-133.70316	1331.8408	-142.40488	-244.77525	1251.4778	-117.24859	-385.20169	1086.9102	-123.87482	-462.78625	1112.1732	10.123622	-523.77667	1098.1598	86.307205	-551.1449	1063.6967	25.927952	-600.98383	1098.325	91.170624	134.80447	887.00549	-56.213989	-158.05023	908.07532	-70.544044	50.729706	924.55157	-244.31651	-36.820454	925.29108	-253.05351
7	0.06	46.986572	1535.0026	-34.017982	-95.692032	1531.5183	-69.536263	78.510818	1530.9225	-168.08434	-70.227875	1522.3993	-200.76036	0.37029555	1320.9521	-235.19145	7.0938301	1107.1102	-261.9613	-0.57049215	1236.8865	-41.852322	-2.1902738	1084.027	2.6210165	-91.560806	1247.4019	-260.90912	156.66548	1327.1478	-160.2588	289.57422	1173.7175	-81.041222	370.53201	1083.6189	-114.02396	392.40329	1117.4861	-32.757202	451.75742	1080.7328	122.30045	508.59909	1067.2123	74.608185	539.38623	1079.8994	144.64403	-133.69102	1332.0135	-142.42111	-245.12427	1251.8309	-117.61478	-386.45566	1088.5251	-125.48079	-464.23288	1116.0527	7.7252717	-525.51398	1103.6534	84.174194	-553.00891	1068.5464	24.225657	-602.74353	1104.6212	88.613258	134.74898	887	-56.02235	-158.11697	908.01996	-70.302673	50.671097	924.57947	-244.06946	-36.88364	925.35522	-252.87169
8	0.07	46.585594	1535.069	-33.769733	-95.925331	1531.6598	-70.027809	78.768852	1530.7805	-167.65602	-69.831291	1522.3611	-201.00012	0.36185229	1320.9214	-235.05957	7.1160297	1107.0336	-261.67618	-0.70552564	1236.9778	-41.691826	-2.2835078	1084.1041	2.7864168	-91.511017	1247.3315	-260.73447	156.51434	1327.2629	-160.13229	290.02606	1174.0952	-81.396454	371.24326	1084.5782	-114.98	392.85873	1119.2905	-34.221413	452.41852	1084.7372	121.18095	509.19193	1070.9186	73.733498	540.04602	1084.9849	143.40642	-133.68715	1332.1802	-142.44386	-245.48077	1252.0907	-118.1104	-387.52036	1089.7081	-127.04765	-465.34781	1119.3882	5.4468484	-526.93079	1108.5021	81.681442	-554.49109	1072.7893	22.425661	-604.03241	1110.1173	86.005127	134.70103	886.97772	-55.788624	-158.15721	908.00714	-70.100555	50.618649	924.5755	-243.8795	-36.93079	925.38892	-252.72713
9	0.08	46.14608	1535.1111	-33.443596	-96.162895	1531.8323	-70.61705	78.759567	1530.4762	-167.15143	-69.099586	1522.6888	-202.51009	0.34529027	1320.8685	-234.89201	7.0904689	1106.9873	-261.42752	-0.85347259	1237.0085	-41.477684	-2.4190054	1084.1785	3.0657778	-91.452507	1247.2653	-260.60229	156.37425	1327.3694	-159.9807	290.41711	1174.2836	-81.828369	371.78778	1085.2581	-115.9524	393.18976	1120.7334	-35.733345	452.77673	1088.1362	120.07747	509.61597	1074.0331	72.782997	540.50732	1089.2672	142.1573	-133.73355	1332.5374	-142.53741	-245.85803	1252.2708	-118.63104	-388.38052	1090.714	-128.80119	-466.1944	1122.1824	3.1307189	-527.93353	1112.7083	79.541916	-555.69183	1076.4301	20.617977	-605.0705	1114.8958	83.702621	134.62756	886.93457	-55.578968	-158.23166	908.03015	-69.891068	50.591515	924.58746	-243.65047	-36.975445	925.39368	-252.52327
10	0.09	45.694218	1535.1364	-33.116333	-96.463501	1532.1058	-70.816032	79.082047	1530.2942	-166.63818	-68.624229	1522.7229	-202.72478	0.34071651	1320.8198	-234.82022	7.1224604	1106.9106	-261.20044	-1.0085584	1237.0769	-41.33485	-2.5779903	1084.2054	3.3065231	-91.37487	1247.2173	-260.55261	156.24765	1327.395	-159.85349	290.73651	1174.2898	-82.247009	372.1698	1085.7128	-116.95815	393.35001	1121.7439	-37.106281	452.91678	1090.8021	118.94444	509.84634	1076.5092	71.822472	540.69183	1092.7931	140.84897	-133.73532	1332.6572	-142.54953	-246.17262	1252.436	-119.15306	-389.02707	1091.3918	-130.65775	-466.72836	1124.4513	0.75037181	-528.62036	1116.1627	77.249542	-556.50317	1079.3895	18.791843	-605.76373	1118.8811	81.213684	134.56378	886.88007	-55.331688	-158.26155	908.00568	-69.675346	50.56617	924.56647	-243.43774	-37.015514	925.37598	-252.27451
11	0.1	45.146858	1535.1643	-32.798405	-96.661163	1532.2158	-71.640923	79.427277	1530.1416	-166.13913	-68.105843	1522.7058	-203.12349	0.3610166	1320.7361	-234.68808	7.1667566	1106.8733	-261.01297	-1.1738015	1237.1461	-41.104992	-2.7612453	1084.2739	3.5298135	-91.305779	1247.1115	-260.34821	156.16936	1327.4357	-159.69499	290.98059	1174.084	-82.765831	372.37466	1085.83	-117.9691	393.31995	1122.3267	-38.575214	452.85663	1092.8344	117.75557	509.92001	1078.5061	70.83197	540.6463	1095.4883	139.66524	-133.77502	1332.7716	-142.71941	-246.45601	1252.5203	-119.73617	-389.32574	1091.7527	-132.56557	-467.00229	1126.1388	-1.5377896	-528.98822	1118.8745	74.859734	-556.9762	1081.7305	16.806305	-606.10162	1122.0193	78.94709	134.46918	886.83112	-55.145878	-158.34358	907.99438	-69.512062	50.5718	924.57129	-243.2525	-37.027035	925.37329	-252.0808
12	0.11	44.658566	1535.1724	-32.485706	-96.87236	1532.3224	-72.396805	79.82592	1530.0161	-165.54356	-67.685623	1522.4019	-202.79054	0.39127156	1320.6965	-234.72368	7.1659784	1106.8135	-260.83817	-1.3409489	1237.1998	-41.084839	-2.9231608	1084.3473	3.7540588	-91.243584	1247.0702	-260.38052	156.09508	1327.4451	-159.48471	291.15338	1173.7139	-83.24942	372.40628	1085.6456	-118.97031	393.18921	1122.6205	-39.900845	452.64383	1094.2079	116.56412	509.80746	1079.8561	69.775635	540.41125	1097.4188	138.4646	-133.82764	1332.8815	-142.8475	-246.71815	1252.4662	-120.3502	-389.37851	1091.6539	-134.35651	-466.98911	1127.2885	-3.7439082	-529.07813	1120.8876	72.685455	-557.18933	1083.4407	14.930945	-605.95953	1124.1399	76.701591	134.42839	886.79926	-54.866547	-158.40398	907.96704	-69.383377	50.56641	924.53412	-243.03937	-37.056721	925.35516	-251.89871
13	0.12	44.094093	1535.207	-32.156544	-97.118423	1532.4677	-73.002251	80.182243	1529.86	-164.94925	-66.807236	1522.7787	-204.08522	0.41611058	1320.6563	-234.56287	7.1885285	1106.7198	-260.61987	-1.5334514	1237.228	-40.874943	-3.1119399	1084.3673	3.8905175	-91.201836	1247.0322	-260.34857	156.06229	1327.4495	-159.31935	291.22552	1173.1917	-83.674759	372.06586	1085.1887	-120.1183	392.81903	1122.5032	-41.327248	452.17725	1094.9369	115.31751	509.48291	1080.6185	68.634941	539.91779	1098.4775	137.34464	-133.93449	1332.9083	-142.80798	-246.94478	1252.2449	-121.1106	-389.14566	1091.2681	-136.20436	-466.77524	1127.8413	-6.1506395	-528.98242	1122.1494	70.477234	-557.09485	1084.4987	12.845726	-606.0094	1125.7233	74.528175	134.30048	886.75623	-54.620922	-158.49884	907.94354	-69.178802	50.570114	924.48822	-242.80034	-37.015259	925.41541	-251.83427
